<svg width="3200" height="533" viewBox="0 0 3200 533" fill="none" xmlns="http://www.w3.org/2000/svg">
<path fill-rule="evenodd" clip-rule="evenodd" d="M74.8225 0C84.1753 0 93.5282 0 102.881 0C141.695 8.50228 166.116 32.0575 176.145 70.6657C177.224 81.745 178.264 92.8298 179.262 103.92C187.72 141.788 210.755 165.516 248.369 175.106C295.612 181.024 329.04 162.491 348.652 119.508C350.525 114.442 351.91 109.246 352.809 103.92C351.415 76.9034 358.69 52.6554 374.632 31.1761C389.258 14.4276 407.444 4.0355 429.19 0C438.543 0 447.896 0 457.249 0C497.778 9.35282 522.719 34.2937 532.071 74.8225C532.071 84.1753 532.071 93.5282 532.071 102.881C523.569 141.695 500.014 166.116 461.406 176.145C364.707 174.88 286.939 212.118 228.105 287.859C192.168 339.916 174.849 397.765 176.145 461.406C166.116 500.014 141.695 523.569 102.881 532.071C93.5282 532.071 84.1753 532.071 74.8225 532.071C34.2937 522.719 9.35282 497.778 0 457.249C0 447.896 0 438.543 0 429.19C8.50228 390.376 32.0575 365.955 70.6657 355.927C81.7506 354.887 92.8353 353.848 103.92 352.809C142.39 344.397 166.12 321.015 175.106 282.663C180.706 235.825 162.174 202.743 119.508 183.419C114.442 181.546 109.246 180.161 103.92 179.262C76.9024 180.656 52.6544 173.381 31.1761 157.439C14.4276 142.813 4.0355 124.627 0 102.881C0 93.5282 0 84.1753 0 74.8225C9.35282 34.2937 34.2937 9.35282 74.8225 0Z" fill="#441906"/>
<path fill-rule="evenodd" clip-rule="evenodd" d="M532.075 370.995C532.075 382.426 532.075 393.857 532.075 405.288C523.254 461.751 492.425 501.068 439.586 523.238C428.304 527.322 416.873 530.267 405.292 532.071C393.861 532.071 382.43 532.071 370.999 532.071C314.897 523.255 275.581 492.772 253.049 440.621C232.641 379.139 245.284 325.62 290.98 280.064C337.629 241.981 389.242 233.667 445.821 255.124C494.893 278.618 523.645 317.241 532.075 370.995Z" fill="#441906"/>
<path d="M786.848 102.67H772.66C770.689 102.67 768.916 104.444 767.339 107.991C766.157 111.144 765.565 113.706 765.565 115.676V402.404C765.565 411.074 766.945 417.578 769.704 421.913C772.857 426.248 777.98 429.007 785.075 430.19C791.775 431.372 796.504 432.357 799.263 433.146C802.416 433.934 803.993 436.693 803.993 441.422C803.993 450.487 800.249 455.02 792.76 455.02C790.001 455.02 783.301 454.231 772.66 452.655C762.018 451.078 746.647 450.29 726.547 450.29C706.446 450.29 691.075 451.078 680.434 452.655C669.793 454.231 663.092 455.02 660.334 455.02C652.845 455.02 649.101 450.684 649.101 442.013C649.101 437.678 650.283 434.919 652.648 433.737C655.407 432.554 659.939 431.372 666.246 430.19C674.128 428.613 679.449 426.051 682.208 422.504C685.361 418.957 686.937 412.06 686.937 401.812V116.267C686.937 113.903 686.149 111.144 684.572 107.991C683.39 104.444 681.813 102.67 679.843 102.67H672.749C663.684 102.67 655.604 105.823 648.51 112.129C641.81 118.041 635.307 125.332 629 134.003C619.936 146.615 613.63 157.06 610.082 165.336C606.535 173.219 602.2 177.16 597.076 177.16C591.558 177.16 588.8 173.81 588.8 167.11C588.8 163.563 590.179 155.877 592.938 144.053C595.697 131.835 599.244 113.903 603.579 90.2551C605.944 80.4019 607.718 71.7311 608.9 64.2427C610.477 56.7543 613.63 53.0101 618.359 53.0101C620.33 53.0101 621.906 53.7983 623.089 55.3748C624.271 56.5572 625.256 58.1337 626.045 60.1043C626.833 62.075 627.424 64.0456 627.818 66.0162C628.606 67.5928 629.395 68.5781 630.183 68.9722C631.365 73.3076 632.942 76.0665 634.912 77.2489C636.883 78.4313 639.642 79.0224 643.189 79.0224C645.554 79.0224 648.116 79.0224 650.875 79.0224C654.028 78.6283 657.772 78.4313 662.107 78.4313H789.213C804.19 78.4313 816.211 78.0371 825.276 77.2489C834.341 76.4606 839.661 74.2929 841.238 70.7458C843.603 70.7458 845.376 69.7605 846.559 67.7898C847.741 65.4251 848.923 62.8632 850.106 60.1043C851.288 57.3454 852.668 54.9807 854.244 53.0101C855.821 50.6453 858.185 49.4629 861.338 49.4629C864.097 49.4629 866.265 51.2365 867.841 54.7836C869.418 58.3308 870.206 61.0897 870.206 63.0603C870.206 72.1252 869.221 83.949 867.25 98.5317C865.674 112.72 864.294 130.653 863.112 152.33C862.324 161.001 861.141 167.701 859.565 172.431C857.988 177.16 855.032 179.525 850.697 179.525C845.573 179.525 842.026 175.781 840.055 168.292C838.085 160.804 833.947 149.768 827.64 135.186C823.305 125.726 817.984 118.041 811.678 112.129C805.766 105.823 797.49 102.67 786.848 102.67Z" fill="#441906"/>
<path d="M1020.29 383.486C1020.29 394.915 1020.88 403.192 1022.06 408.316C1023.64 413.439 1026.99 416.001 1032.11 416.001C1035.66 416.001 1038.81 414.425 1041.57 411.272C1044.72 408.118 1047.28 406.542 1049.25 406.542C1050.44 406.542 1051.82 407.527 1053.39 409.498C1055.36 411.469 1056.35 414.03 1056.35 417.183C1056.35 420.731 1054.57 425.263 1051.03 430.781C1047.48 435.904 1042.55 441.028 1036.25 446.152C1030.34 450.881 1023.44 455.02 1015.56 458.567C1008.07 462.114 1000.18 463.887 991.908 463.887C981.661 463.887 973.778 460.34 968.261 453.246C963.137 446.546 957.619 435.313 951.707 419.548H949.343C933.183 434.525 918.404 445.758 905.003 453.246C891.603 460.734 879.976 464.479 870.123 464.479C855.146 464.479 843.322 458.961 834.652 447.925C825.981 436.496 821.645 421.913 821.645 404.177C821.645 393.536 823.025 384.274 825.784 376.391C828.937 368.115 833.469 360.626 839.381 353.926C845.687 346.832 853.373 340.329 862.438 334.417C871.502 328.111 882.144 321.608 894.362 314.907L941.657 288.895C945.598 286.53 947.569 281.604 947.569 274.115V236.279C947.569 213.42 941.657 201.99 929.833 201.99C925.498 201.99 921.754 203.172 918.601 205.537C915.448 207.902 912.492 211.055 909.733 214.996C907.368 218.543 904.806 222.879 902.047 228.002C899.683 233.126 897.121 238.447 894.362 243.965C882.538 267.218 864.802 278.845 841.155 278.845C829.331 278.845 823.419 273.13 823.419 261.7C823.419 253.03 826.375 243.768 832.287 233.914C838.593 224.061 846.673 215.193 856.526 207.311C866.773 199.428 878.597 192.925 891.997 187.801C905.397 182.284 919.389 179.525 933.972 179.525C961.166 179.525 982.252 185.634 997.229 197.852C1012.6 210.07 1020.29 227.411 1020.29 249.876V383.486ZM947.569 319.637C947.569 314.907 946.387 312.543 944.022 312.543C942.445 312.543 940.672 313.331 938.701 314.907L922.148 325.549C897.712 341.708 885.494 360.035 885.494 380.53C885.494 390.777 887.859 399.054 892.588 405.36C897.712 411.666 904.412 414.819 912.689 414.819C923.724 414.819 932.198 410.68 938.11 402.404C944.416 394.127 947.569 381.515 947.569 364.567V319.637Z" fill="#441906"/>
<path d="M1136.69 68.381C1148.12 68.381 1157.97 72.5193 1166.25 80.796C1174.53 89.0727 1178.66 99.9112 1178.66 113.311C1178.66 126.318 1174.53 137.156 1166.25 145.827C1157.97 154.104 1148.12 158.242 1136.69 158.242C1125.26 158.242 1115.41 154.104 1107.13 145.827C1098.85 137.156 1094.72 126.318 1094.72 113.311C1094.72 99.9112 1098.85 89.0727 1107.13 80.796C1115.8 72.5193 1125.65 68.381 1136.69 68.381ZM1171.57 196.078V397.083C1171.57 405.754 1172.16 412.454 1173.34 417.183C1174.53 421.913 1177.28 425.46 1181.62 427.825C1184.77 429.795 1187.93 430.978 1191.08 431.372C1194.63 431.372 1197.78 431.569 1200.54 431.963C1203.3 432.357 1205.47 433.343 1207.04 434.919C1209.01 436.496 1210 439.255 1210 443.196C1210 450.684 1206.45 454.428 1199.36 454.428C1195.41 454.428 1189.11 453.64 1180.44 452.064C1171.77 450.487 1159.94 449.699 1144.97 449.699C1122.11 449.699 1104.37 450.487 1091.76 452.064C1079.54 453.246 1072.45 453.837 1070.48 453.837C1064.96 453.837 1062.2 450.29 1062.2 443.196C1062.2 439.649 1062.99 437.087 1064.56 435.51C1066.14 433.934 1068.11 432.948 1070.48 432.554C1072.84 431.766 1075.4 431.372 1078.16 431.372C1081.32 430.978 1084.07 430.19 1086.44 429.007C1091.96 426.248 1095.31 422.701 1096.49 418.366C1097.67 413.636 1098.26 406.542 1098.26 397.083V284.166C1098.26 275.889 1097.87 269.583 1097.08 265.247C1096.69 260.912 1094.32 257.365 1089.99 254.606C1087.62 253.03 1084.86 252.044 1081.71 251.65C1078.95 251.256 1076.39 250.862 1074.02 250.468C1071.66 250.074 1069.69 249.285 1068.11 248.103C1066.54 246.526 1065.75 244.162 1065.75 241.009C1065.75 237.461 1066.54 234.9 1068.11 233.323C1070.08 231.353 1072.84 229.776 1076.39 228.594C1079.94 227.411 1084.07 226.229 1088.8 225.047C1093.93 223.864 1099.84 221.696 1106.54 218.543C1116.39 213.814 1124.67 209.281 1131.37 204.946C1138.46 200.216 1144.18 196.078 1148.51 192.531C1152.85 188.59 1156.4 185.437 1159.16 183.072C1161.91 180.707 1164.08 179.525 1165.66 179.525C1169.6 179.525 1171.57 185.043 1171.57 196.078Z" fill="#441906"/>
<path d="M1322.23 90.8462V397.083C1322.23 405.754 1322.82 412.454 1324 417.183C1325.18 421.913 1327.94 425.46 1332.28 427.825C1335.43 429.795 1338.58 430.978 1341.74 431.372C1345.28 431.372 1348.44 431.569 1351.19 431.963C1353.95 432.357 1356.12 433.343 1357.7 434.919C1359.67 436.496 1360.65 439.255 1360.65 443.196C1360.65 450.684 1357.3 454.428 1350.6 454.428C1348.63 454.428 1342.33 453.64 1331.69 452.064C1321.04 450.487 1305.67 449.699 1285.57 449.699C1266.65 449.699 1251.88 450.487 1241.23 452.064C1230.59 453.246 1223.89 453.837 1221.13 453.837C1218.37 453.837 1216.21 452.852 1214.63 450.881C1213.45 448.911 1212.86 446.349 1212.86 443.196C1212.86 439.255 1213.64 436.693 1215.22 435.51C1216.8 433.934 1218.77 432.948 1221.13 432.554C1223.5 431.766 1226.06 431.372 1228.82 431.372C1231.97 430.978 1234.73 430.19 1237.1 429.007C1242.61 426.248 1245.96 422.701 1247.15 418.366C1248.33 413.636 1248.92 406.542 1248.92 397.083V128.682C1248.92 118.041 1247.15 110.75 1243.6 106.808C1240.45 102.473 1236.7 99.5171 1232.37 97.9405C1228.42 96.364 1224.68 95.1816 1221.13 94.3934C1217.98 93.211 1216.4 90.2551 1216.4 85.5255C1216.4 78.8254 1218.97 74.687 1224.09 73.1105C1229.61 71.534 1237.49 69.7605 1247.74 67.7898C1257.98 65.4251 1266.85 62.8632 1274.34 60.1043C1281.83 57.3454 1288.13 54.5866 1293.26 51.8277C1298.78 49.0688 1303.11 46.9011 1306.26 45.3246C1309.81 43.3539 1312.57 42.3686 1314.54 42.3686C1320.45 42.3686 1323.41 46.9011 1323.41 55.966C1323.41 60.3014 1323.21 65.4251 1322.82 71.337C1322.42 77.2489 1322.23 83.752 1322.23 90.8462Z" fill="#441906"/>
<path d="M1503.63 179.525C1524.12 179.525 1542.45 183.072 1558.61 190.166C1575.16 196.866 1588.95 206.523 1599.99 219.135C1611.02 231.747 1619.5 246.921 1625.41 264.656C1631.32 282.392 1634.28 301.901 1634.28 323.184C1634.28 344.467 1631.13 363.779 1624.82 381.121C1618.91 398.462 1610.04 413.439 1598.22 426.051C1586.79 438.269 1572.6 447.728 1555.65 454.428C1539.1 461.129 1520.38 464.479 1499.49 464.479C1480.57 464.479 1463.42 460.932 1448.05 453.837C1433.08 447.137 1420.07 437.481 1409.03 424.869C1398 412.257 1389.53 397.28 1383.61 379.938C1377.7 362.203 1374.75 342.89 1374.75 322.002C1374.75 300.719 1377.9 281.407 1384.2 264.065C1390.51 246.329 1399.18 231.353 1410.22 219.135C1421.65 206.523 1435.24 196.866 1451.01 190.166C1467.17 183.072 1484.71 179.525 1503.63 179.525ZM1500.67 201.399C1485.69 201.399 1473.47 210.464 1464.02 228.594C1454.95 246.329 1450.42 272.342 1450.42 306.631C1450.42 350.379 1455.94 384.077 1466.97 407.724C1478.01 430.978 1491.8 442.605 1508.35 442.605C1523.33 442.605 1535.35 433.54 1544.42 415.41C1553.48 397.28 1558.01 371.071 1558.01 336.781C1558.01 293.822 1552.5 260.518 1541.46 236.87C1530.82 213.223 1517.22 201.399 1500.67 201.399Z" fill="#441906"/>
<path d="M1758.66 185.437V212.04C1758.66 215.982 1759.26 217.952 1760.44 217.952C1761.62 217.952 1763.2 216.77 1765.17 214.405L1770.49 207.311C1783.49 190.757 1797.68 182.481 1813.05 182.481C1825.67 182.481 1835.91 186.619 1843.8 194.896C1851.68 203.172 1855.62 214.011 1855.62 227.411C1855.62 242.388 1852.07 254.015 1844.98 262.291C1837.88 270.174 1829.02 274.115 1818.37 274.115C1811.28 274.115 1805.37 272.342 1800.64 268.795C1796.3 265.247 1792.56 261.503 1789.41 257.562C1786.25 253.227 1783.3 249.285 1780.54 245.738C1778.17 242.191 1775.61 240.417 1772.85 240.417C1764.97 240.417 1761.03 250.271 1761.03 269.977V397.083C1761.03 405.754 1761.42 412.454 1762.21 417.183C1763.39 421.519 1766.15 425.066 1770.49 427.825C1773.25 429.795 1776.2 430.978 1779.36 431.372C1782.51 431.372 1785.27 431.569 1787.63 431.963C1790.39 432.357 1792.56 433.343 1794.14 434.919C1796.11 436.101 1797.09 438.86 1797.09 443.196C1797.09 450.29 1794.92 453.837 1790.59 453.837C1787.44 453.837 1780.34 453.246 1769.31 452.064C1758.27 450.487 1743.29 449.699 1724.37 449.699C1705.46 449.699 1690.68 450.487 1680.04 452.064C1669.39 453.246 1662.69 453.837 1659.93 453.837C1657.18 453.837 1655.01 452.852 1653.43 450.881C1651.86 448.911 1651.07 446.349 1651.07 443.196C1651.07 439.255 1651.86 436.693 1653.43 435.51C1655.01 433.934 1656.98 432.948 1659.34 432.554C1661.71 431.766 1664.27 431.372 1667.03 431.372C1669.79 430.978 1672.55 430.19 1675.31 429.007C1680.82 426.248 1684.17 422.701 1685.36 418.366C1686.93 413.636 1687.72 406.542 1687.72 397.083V277.662C1687.72 275.692 1687.52 273.721 1687.13 271.751C1687.13 269.78 1687.13 267.415 1687.13 264.656C1687.13 259.138 1686.34 254.803 1684.76 251.65C1683.19 248.103 1680.04 245.541 1675.31 243.965C1669.39 242.388 1664.47 241.403 1660.53 241.009C1656.58 240.615 1654.61 237.659 1654.61 232.141C1654.61 228.594 1655.6 225.835 1657.57 223.864C1659.54 221.893 1662.3 220.317 1665.85 219.135C1669.39 217.952 1673.53 216.77 1678.26 215.587C1683.39 214.011 1688.9 211.843 1694.82 209.084C1703.09 205.143 1709.99 201.005 1715.51 196.669C1721.42 192.334 1726.35 188.196 1730.29 184.254C1734.62 180.313 1738.17 177.16 1740.93 174.795C1744.08 172.036 1747.04 170.657 1749.8 170.657C1754.13 170.657 1756.69 172.036 1757.48 174.795C1758.27 177.554 1758.66 181.101 1758.66 185.437Z" fill="#441906"/>
<path d="M1981.34 224.455C1981.34 234.703 1981.93 241.6 1983.11 245.147C1984.69 248.694 1989.02 250.468 1996.12 250.468C2016.22 250.468 2032.18 243.768 2044.01 230.367C2056.22 216.573 2062.33 199.034 2062.33 177.751C2062.33 167.11 2060.76 157.454 2057.6 148.783C2054.84 139.718 2050.9 132.033 2045.78 125.726C2041.05 119.026 2035.33 113.903 2028.63 110.356C2022.33 106.414 2015.43 104.444 2007.94 104.444C1996.12 104.444 1988.63 108.188 1985.48 115.676C1982.72 122.771 1981.34 133.609 1981.34 148.192V224.455ZM2059.38 259.336C2070.81 262.883 2079.67 268.006 2085.98 274.706C2092.68 281.013 2098.79 290.275 2104.31 302.492L2149.24 405.36C2152.39 412.848 2155.94 418.563 2159.88 422.504C2164.21 426.445 2168.16 429.598 2171.7 431.963C2175.25 433.934 2178.21 435.707 2180.57 437.284C2182.94 438.86 2184.12 441.225 2184.12 444.378C2184.12 447.531 2183.13 450.29 2181.16 452.655C2179.59 454.625 2177.42 455.611 2174.66 455.611C2171.9 455.611 2167.37 455.02 2161.06 453.837C2155.15 452.655 2147.07 452.064 2136.82 452.064C2128.94 452.064 2121.45 452.458 2114.36 453.246C2107.26 454.034 2100.56 454.428 2094.26 454.428C2089.13 454.428 2085.39 453.64 2083.02 452.064C2080.66 450.093 2077.7 444.575 2074.16 435.51L2026.27 313.725C2016.02 287.713 2004.99 274.706 1993.16 274.706H1989.02C1984.69 274.706 1982.52 277.465 1982.52 282.983V402.404C1982.52 411.074 1983.7 417.578 1986.07 421.913C1988.83 426.248 1993.75 429.007 2000.85 430.19C2007.55 431.372 2012.48 432.357 2015.63 433.146C2018.78 433.54 2020.36 436.299 2020.36 441.422C2020.36 450.487 2016.61 455.02 2009.13 455.02C2006.76 455.02 2000.06 454.231 1989.02 452.655C1978.38 451.078 1963.21 450.29 1943.5 450.29C1924.19 450.29 1909.21 451.078 1898.57 452.655C1887.93 454.231 1881.23 455.02 1878.47 455.02C1870.98 455.02 1867.24 450.684 1867.24 442.013C1867.24 437.678 1868.42 434.919 1870.79 433.737C1873.15 432.554 1877.68 431.372 1884.38 430.19C1892.27 428.613 1897.59 426.051 1900.35 422.504C1903.11 418.563 1904.48 411.666 1904.48 401.812V134.003C1904.48 125.332 1903.3 119.026 1900.94 115.085C1898.57 110.75 1894.04 107.794 1887.34 106.217C1880.64 104.641 1875.52 103.458 1871.97 102.67C1868.42 101.488 1866.65 98.3347 1866.65 93.211C1866.65 84.1461 1873.15 79.6136 1886.16 79.6136C1890.89 79.6136 1896.4 80.0078 1902.71 80.796C1909.41 81.1901 1916.7 81.3872 1924.59 81.3872C1948.63 81.3872 1970.11 80.9931 1989.02 80.2048C2008.34 79.0224 2025.09 78.4313 2039.28 78.4313C2074.75 78.4313 2101.15 86.3138 2118.5 102.079C2136.23 117.45 2145.1 139.718 2145.1 168.883C2145.1 191.743 2137.81 211.055 2123.23 226.82C2108.64 242.585 2087.36 253.424 2059.38 259.336Z" fill="#441906"/>
<path d="M2290.28 268.795C2305.26 268.795 2316.49 266.824 2323.98 262.883C2331.47 258.547 2335.21 250.862 2335.21 239.826C2335.21 228.002 2331.86 218.543 2325.16 211.449C2318.86 204.355 2310.78 200.808 2300.92 200.808C2289.49 200.808 2279.25 205.34 2270.18 214.405C2261.51 223.076 2256.19 236.082 2254.22 253.424L2253.04 263.474V264.656C2253.04 267.415 2255.21 268.795 2259.54 268.795H2290.28ZM2378.96 292.442H2258.95C2252.64 292.442 2249.49 295.989 2249.49 303.084V318.455C2249.49 334.22 2251.46 348.605 2255.4 361.612C2259.34 374.224 2264.86 385.062 2271.96 394.127C2279.05 403.192 2287.52 410.286 2297.38 415.41C2307.23 420.139 2317.87 422.504 2329.3 422.504C2338.76 422.504 2346.64 420.928 2352.95 417.775C2359.65 414.622 2365.36 411.272 2370.09 407.724C2374.82 403.783 2378.76 400.236 2381.92 397.083C2385.07 393.93 2388.03 392.353 2390.79 392.353C2393.15 392.353 2395.12 393.339 2396.7 395.309C2398.67 397.28 2399.65 399.842 2399.65 402.995C2399.65 406.542 2397.09 411.863 2391.97 418.957C2386.84 425.657 2379.55 432.357 2370.09 439.057C2361.03 445.758 2349.99 451.67 2336.99 456.793C2324.37 461.917 2310.38 464.479 2295.01 464.479C2277.28 464.479 2260.72 460.932 2245.35 453.837C2230.38 447.137 2217.37 437.481 2206.33 424.869C2195.69 412.257 2187.22 397.28 2180.91 379.938C2175 362.203 2172.04 342.89 2172.04 322.002C2172.04 300.719 2175.2 281.407 2181.5 264.065C2187.81 246.329 2196.48 231.353 2207.52 219.135C2218.95 206.523 2232.54 196.866 2248.31 190.166C2264.07 183.072 2281.61 179.525 2300.92 179.525C2316.29 179.525 2330.09 182.087 2342.31 187.21C2354.53 192.334 2364.97 199.428 2373.64 208.493C2382.31 217.164 2388.81 227.214 2393.15 238.644C2397.88 250.074 2400.24 262.094 2400.24 274.706C2400.24 281.407 2398.47 286.136 2394.92 288.895C2391.77 291.26 2386.45 292.442 2378.96 292.442Z" fill="#441906"/>
<path d="M2625.28 383.486C2625.28 394.915 2625.87 403.192 2627.05 408.316C2628.63 413.439 2631.98 416.001 2637.1 416.001C2640.65 416.001 2643.8 414.425 2646.56 411.272C2649.71 408.118 2652.27 406.542 2654.24 406.542C2655.43 406.542 2656.81 407.527 2658.38 409.498C2660.35 411.469 2661.34 414.03 2661.34 417.183C2661.34 420.731 2659.56 425.263 2656.02 430.781C2652.47 435.904 2647.54 441.028 2641.24 446.152C2635.33 450.881 2628.43 455.02 2620.55 458.567C2613.06 462.114 2605.17 463.887 2596.9 463.887C2586.65 463.887 2578.77 460.34 2573.25 453.246C2568.13 446.546 2562.61 435.313 2556.7 419.548H2554.33C2538.17 434.525 2523.39 445.758 2509.99 453.246C2496.59 460.734 2484.97 464.479 2475.11 464.479C2460.14 464.479 2448.31 458.961 2439.64 447.925C2430.97 436.496 2426.64 421.913 2426.64 404.177C2426.64 393.536 2428.01 384.274 2430.77 376.391C2433.93 368.115 2438.46 360.626 2444.37 353.926C2450.68 346.832 2458.36 340.329 2467.43 334.417C2476.49 328.111 2487.13 321.608 2499.35 314.907L2546.65 288.895C2550.59 286.53 2552.56 281.604 2552.56 274.115V236.279C2552.56 213.42 2546.65 201.99 2534.82 201.99C2530.49 201.99 2526.74 203.172 2523.59 205.537C2520.44 207.902 2517.48 211.055 2514.72 214.996C2512.36 218.543 2509.8 222.879 2507.04 228.002C2504.67 233.126 2502.11 238.447 2499.35 243.965C2487.53 267.218 2469.79 278.845 2446.14 278.845C2434.32 278.845 2428.41 273.13 2428.41 261.7C2428.41 253.03 2431.36 243.768 2437.28 233.914C2443.58 224.061 2451.66 215.193 2461.52 207.311C2471.76 199.428 2483.59 192.925 2496.99 187.801C2510.39 182.284 2524.38 179.525 2538.96 179.525C2566.16 179.525 2587.24 185.634 2602.22 197.852C2617.59 210.07 2625.28 227.411 2625.28 249.876V383.486ZM2552.56 319.637C2552.56 314.907 2551.38 312.543 2549.01 312.543C2547.43 312.543 2545.66 313.331 2543.69 314.907L2527.14 325.549C2502.7 341.708 2490.48 360.035 2490.48 380.53C2490.48 390.777 2492.85 399.054 2497.58 405.36C2502.7 411.666 2509.4 414.819 2517.68 414.819C2528.71 414.819 2537.19 410.68 2543.1 402.404C2549.41 394.127 2552.56 381.515 2552.56 364.567V319.637Z" fill="#441906"/>
<path d="M2806.71 179.525C2817.75 179.525 2828.19 180.707 2838.04 183.072C2847.9 185.043 2856.37 187.801 2863.46 191.349C2870.95 194.896 2876.67 199.034 2880.61 203.764C2884.94 208.493 2887.11 213.42 2887.11 218.543C2887.11 234.703 2885.14 248.3 2881.2 259.336C2877.65 269.977 2872.73 275.298 2866.42 275.298C2861.3 275.298 2856.57 272.736 2852.23 267.612C2848.29 262.094 2843.76 254.212 2838.63 243.965C2835.48 237.659 2832.72 231.944 2830.36 226.82C2828.39 221.302 2826.22 216.77 2823.86 213.223C2821.88 209.281 2819.52 206.325 2816.76 204.355C2814.4 201.99 2811.24 200.808 2807.3 200.808C2801 200.808 2794.3 203.37 2787.2 208.493C2780.5 213.223 2774.19 220.12 2768.28 229.185C2762.77 238.25 2758.04 249.285 2754.09 262.291C2750.55 274.904 2748.77 289.289 2748.77 305.448C2748.77 322.79 2750.94 338.752 2755.28 353.335C2759.61 367.523 2765.52 379.741 2773.01 389.989C2780.5 400.236 2789.37 408.316 2799.62 414.227C2809.86 420.139 2820.7 423.095 2832.13 423.095C2839.62 423.095 2846.12 421.913 2851.64 419.548C2857.16 417.183 2861.89 414.622 2865.83 411.863C2870.16 408.71 2873.71 405.951 2876.47 403.586C2879.23 401.221 2881.59 400.039 2883.57 400.039C2889.08 400.039 2891.84 403.192 2891.84 409.498C2891.84 413.045 2889.28 417.972 2884.16 424.278C2879.03 430.584 2872.14 436.89 2863.46 443.196C2855.19 449.108 2845.33 454.231 2833.91 458.567C2822.48 462.902 2810.45 465.07 2797.84 465.07C2780.5 465.07 2764.34 461.523 2749.37 454.428C2734.78 447.728 2721.97 438.072 2710.94 425.46C2699.9 412.848 2691.23 397.871 2684.93 380.53C2679.01 362.794 2676.06 343.285 2676.06 322.002C2676.06 300.719 2679.01 281.407 2684.93 264.065C2691.23 246.329 2700.1 231.353 2711.53 219.135C2722.96 206.523 2736.75 196.866 2752.91 190.166C2769.07 183.072 2787 179.525 2806.71 179.525Z" fill="#441906"/>
<path d="M3016.73 90.8462V202.581C3016.73 206.128 3017.52 207.902 3019.1 207.902C3019.49 207.902 3021.07 206.917 3023.83 204.946L3036.24 196.078C3042.94 191.349 3050.63 187.407 3059.3 184.254C3068.36 181.101 3077.43 179.525 3086.49 179.525C3137.73 179.525 3163.35 209.281 3163.35 268.795V397.083C3163.35 405.754 3163.74 412.454 3164.53 417.183C3165.71 421.519 3168.47 425.066 3172.81 427.825C3175.56 429.401 3178.52 430.387 3181.67 430.781C3184.83 430.781 3187.78 431.175 3190.54 431.963C3193.3 432.357 3195.47 433.343 3197.04 434.919C3199.01 436.496 3200 439.255 3200 443.196C3200 450.29 3196.45 453.837 3189.36 453.837C3186.21 453.837 3180.1 453.246 3171.03 452.064C3162.36 450.487 3150.54 449.699 3135.56 449.699C3114.28 449.699 3097.72 450.487 3085.9 452.064C3074.47 453.246 3067.77 453.837 3065.8 453.837C3059.89 453.837 3056.93 450.29 3056.93 443.196C3056.93 439.255 3057.52 436.496 3058.71 434.919C3060.28 433.343 3062.06 432.357 3064.03 431.963C3066.39 431.175 3068.76 430.781 3071.12 430.781C3073.88 430.781 3076.44 430.19 3078.81 429.007C3083.93 426.642 3087.08 423.292 3088.26 418.957C3089.45 414.227 3090.04 406.936 3090.04 397.083V281.801C3090.04 237.659 3078.61 215.587 3055.75 215.587C3039.59 215.587 3028.95 221.893 3023.83 234.506C3019.1 247.118 3016.73 264.262 3016.73 285.939V397.083C3016.73 405.36 3017.13 411.863 3017.91 416.592C3018.7 421.322 3020.67 425.066 3023.83 427.825C3026.19 429.401 3028.55 430.387 3030.92 430.781C3033.28 431.175 3035.45 431.569 3037.42 431.963C3039.39 432.357 3040.97 433.343 3042.15 434.919C3043.73 436.496 3044.52 439.255 3044.52 443.196C3044.52 450.29 3042.74 453.837 3039.2 453.837C3036.83 453.837 3030.72 453.246 3020.87 452.064C3011.41 450.487 2997.81 449.699 2980.08 449.699C2961.55 449.699 2946.97 450.487 2936.33 452.064C2925.69 453.246 2918.79 453.837 2915.64 453.837C2912.88 453.837 2910.71 452.852 2909.13 450.881C2907.56 448.911 2906.77 446.349 2906.77 443.196C2906.77 439.255 2907.56 436.693 2909.13 435.51C2910.71 433.934 2912.68 432.948 2915.05 432.554C2917.41 431.766 2919.97 431.372 2922.73 431.372C2925.49 430.978 2928.25 430.19 2931.01 429.007C2936.53 426.248 2939.88 422.701 2941.06 418.366C2942.64 413.636 2943.42 406.542 2943.42 397.083V128.682C2943.42 121.588 2942.64 115.873 2941.06 111.538C2939.88 107.203 2937.31 103.655 2933.37 100.896C2931.01 99.32 2928.45 98.3347 2925.69 97.9405C2922.93 97.1523 2920.37 96.364 2918 95.5758C2916.03 94.7875 2914.26 93.8022 2912.68 92.6198C2911.1 91.0433 2910.32 88.6785 2910.32 85.5255C2910.32 78.8254 2912.88 74.687 2918 73.1105C2923.52 71.534 2931.4 69.7605 2941.65 67.7898C2951.9 65.4251 2960.76 62.8632 2968.25 60.1043C2976.14 57.3454 2982.64 54.5866 2987.76 51.8277C2993.28 49.0688 2997.62 46.9011 3000.77 45.3246C3003.92 43.3539 3006.48 42.3686 3008.45 42.3686C3014.76 42.3686 3017.91 46.9011 3017.91 55.966C3017.91 60.3014 3017.72 65.4251 3017.32 71.337C3016.93 77.2489 3016.73 83.752 3016.73 90.8462Z" fill="#441906"/>
</svg>
